<?xml version="1.0" encoding="utf-8"?>
<!-- Generator: Adobe Illustrator 16.2.0, SVG Export Plug-In . SVG Version: 6.00 Build 0)  -->
<!DOCTYPE svg PUBLIC "-//W3C//DTD SVG 1.1//EN" "http://www.w3.org/Graphics/SVG/1.1/DTD/svg11.dtd">
<svg version="1.1" id="图层_3" xmlns="http://www.w3.org/2000/svg" xmlns:xlink="http://www.w3.org/1999/xlink" x="0px" y="0px"
	 width="363px" height="673px" viewBox="0 0 363 673" enable-background="new 0 0 363 673" xml:space="preserve">
<path fill="#FFFFFF" d="M317.667,0H47.334C21.724,0,0,19.87,0,45.481V625.52C0,651.13,21.724,673,47.334,673h270.333
	C343.275,673,363,651.13,363,625.52V45.481C363,19.87,343.275,0,317.667,0z M336,601H26V49h310V601z"/>
<path fill="#FFFFFF" stroke="#CCCCCC" stroke-width="3.8643" stroke-miterlimit="10" d="M207.146,635.036
	c0,13.176-10.675,23.852-23.853,23.852c-13.175,0-23.855-10.676-23.855-23.852c0-13.18,10.681-23.855,23.855-23.855
	C196.471,611.181,207.146,621.856,207.146,635.036z"/>
<path fill="#C4C4C4" d="M229.827,22.5c0,2.022-1.435,3.5-3.213,3.5h-86.644c-1.774,0-3.213-1.478-3.213-3.5l0,0
	c0-2.022,1.438-3.5,3.213-3.5h86.644C228.393,19,229.827,20.478,229.827,22.5L229.827,22.5z"/>
<circle fill="#C4C4C4" cx="118.89" cy="23.442" r="5.796"/>
</svg>
